# xmcd
#
# Track frame offsets:
#	150
#	12387
#	26156
#	38618
#	48941
#	59450
#	79057
#	89052
#	100836
#	110939
#	125610
#	137156
#	149974
#	160140
#	173957
#	187363
#	197947
#
# Disc length: 2866 seconds
#
# Revision: 0
# Processed by: cddbd v1.5.2PL0 Copyright (c) Steve Scherf et al.
# Submitted via: EZCDAudioConverter 7.1.5.1
#
DISCID=090b3011
DTITLE=Various Artist - '60s Country - Sweet Dreams
DYEAR=2018
DGENRE=Country
TTITLE0=Johnny Cash - Understand Your Man
TTITLE1=Lefty Frizzell - Saginaw, Michigan
TTITLE2=Bobby Bare  - Detroit City
TTITLE3=Charlie Pride - Does My Ring Hurt Your Finger
TTITLE4=Connie Smith - Once a Day
TTITLE5=Elvis Presley - Suspicious Minds
TTITLE6=George Hamilton IV - Abilene
TTITLE7=Henson Cargill - Skip a Rope
TTITLE8=Jim Reeves - Is It Really Over?
TTITLE9=Marty Robbins - Don’t Worry
TTITLE10=Ray Price - Make the World Go Away
TTITLE11=Porter Wagoner - The Carroll County Accident
TTITLE12=Don Gibson - Sweet Dreams
TTITLE13=Johnny Cash - It Ain’t Me, Babe
TTITLE14=Tammy Wynette - D-I-V-O-R-C-E
TTITLE15=The Statler Brothers - Flowers on the Wall
TTITLE16=Johnny Cash - A Boy Named Sue
EXTD=
EXTT0=
EXTT1=
EXTT2=
EXTT3=
EXTT4=
EXTT5=
EXTT6=
EXTT7=
EXTT8=
EXTT9=
EXTT10=
EXTT11=
EXTT12=
EXTT13=
EXTT14=
EXTT15=
EXTT16=
PLAYORDER=
